<?xml version="1.0" encoding="utf-8"?>
<!-- Generator: Adobe Illustrator 16.0.0, SVG Export Plug-In . SVG Version: 6.00 Build 0)  -->
<!DOCTYPE svg PUBLIC "-//W3C//DTD SVG 1.1//EN" "http://www.w3.org/Graphics/SVG/1.1/DTD/svg11.dtd">
<svg version="1.1" id="Layer_1" xmlns="http://www.w3.org/2000/svg" xmlns:xlink="http://www.w3.org/1999/xlink" x="0px" y="0px"
	 width="2267px" height="387.346px" viewBox="0 0 2267 387.346" enable-background="new 0 0 2267 387.346" xml:space="preserve">
<path fill="none" stroke="#FFFFFF" stroke-width="7" stroke-miterlimit="10" d="M192.647,71.939
	c62.866-1.517,105.631,40.232,118.556,86.548c2.021,7.25,2.998,14.791,4.458,22.199c0,0,0,12.68,0,19.018
	c-0.301,1.737-0.744,3.466-0.879,5.217c-1.584,20.529-7.782,39.778-20.027,56.106c-17.988,23.983-40.444,42.463-70.924,48.71
	c-7.127,1.463-14.296,2.719-21.445,4.068c-4.961,0-9.922,0-14.883,0c-1.602-0.324-3.188-0.763-4.806-0.955
	c-28.13-3.347-52.914-14.015-72.992-34.28 M117.032,280.62c0.427-0.383,17.812,17.794,18.239,17.412
	c-2.57-4.651-24.566-25.926-26.973-30.659c-10.823-21.277-15.199-45.173-10.782-69.494c3.138-17.281,7.837-33.774,19.222-47.714
	c16.193-19.826,36.932-32.127,61.586-38.538c14.867-3.867,14.118-1.33,14.852-18.587c0.418-9.814,1.298-10.378,10.301-6.147
	c20.55,9.657,36.1,24.725,48.612,43.525c5.877,8.831,6.147,16.984,0.248,25.198c-6.327,8.812-12.844,17.574-20.134,25.58
	c-8.66,9.511-18.675,17.521-31.046,22.07c-3.443,1.267-5.27,0.405-5.862-3.137c-0.752-4.481-1.396-8.98-2.187-13.455
	c-1.018-5.764-2.054-6.317-7.352-4.158c-0.511,0.207-1.017,0.43-1.509,0.675c-20.155,10.08-35.125,25.357-45.427,45.316
	c-3.323,6.438-3.619,12.958-0.238,19.423c11.168,21.352,28.383,36.223,50.057,46.158c4.108,1.884,6.006,0.812,6.697-3.646
	c0.778-5.022,1.181-10.13,1.347-15.212c0.112-3.43,0.973-5.004,4.832-5.397c22.519-2.299,41.845-11.583,58.842-26.546
	c47.7-41.99,47.341-129.492-24.921-163.54c-20.686-9.747-42.482-9.283-64.04-5.19c-31.75,6.026-56.206,24.073-74.285,50.422
	c-17.532,25.553-21.977,54.352-17.722,84.55c3.569,25.333,13.66,47.818,31.782,66.293C112.93,277.615,115.069,279.03,117.032,280.62
	z M314.217,192.263c0,66.37-53.804,120.171-120.173,120.171S73.873,258.633,73.873,192.263c0-66.369,53.803-120.172,120.171-120.172
	C260.413,72.091,314.217,125.894,314.217,192.263z"/>
<path fill="#FFFFFF" stroke="#FFFFFF" stroke-width="7" stroke-miterlimit="10" d="M115.378,280.62
	c-1.962-1.591-4.102-3.007-5.858-4.797c-18.123-18.476-28.213-40.961-31.782-66.294c-4.255-30.198,0.189-58.996,17.722-84.55
	c18.079-26.35,42.534-44.396,74.285-50.422c21.558-4.092,43.354-4.556,64.04,5.19c72.262,34.047,72.62,121.549,24.921,163.54
	c-16.997,14.963-36.324,24.247-58.842,26.546c-3.859,0.395-4.72,1.969-4.832,5.397c-0.166,5.082-0.568,10.188-1.348,15.212
	c-0.69,4.457-2.588,5.529-6.696,3.646c-21.675-9.937-38.89-24.808-50.057-46.158c-3.382-6.465-3.085-12.983,0.238-19.423
	c10.301-19.959,25.271-35.236,45.426-45.316c0.493-0.244,0.999-0.468,1.509-0.675c5.299-2.159,6.335-1.604,7.353,4.158
	c0.789,4.475,1.435,8.974,2.186,13.455c0.594,3.542,2.419,4.402,5.862,3.137c12.372-4.55,22.387-12.561,31.047-22.069
	c7.289-8.007,13.807-16.771,20.134-25.581c5.898-8.214,5.628-16.367-0.248-25.198c-12.514-18.801-28.063-33.868-48.612-43.525
	c-9.003-4.23-9.883-3.667-10.301,6.147c-0.734,17.257,0.015,14.72-14.853,18.587c-24.655,6.411-45.393,18.712-61.586,38.538
	C103.699,164.104,99,180.598,95.861,197.879c-4.417,24.321,2.288,46.352,13.111,67.63c2.407,4.734,12.019,18.565,14.589,23.217
	C123.135,289.107,115.805,280.238,115.378,280.62z"/>
<rect x="380" y="137.377" fill="none" width="2004" height="155.43"/>
<text transform="matrix(1 0 0 1 380 247.1399)" fill="#FFFFFF" font-family="'IowanOldStyle-Bold'" font-size="145" letter-spacing="6">ECOWASTE DIGESTER</text>
</svg>
