<?xml version="1.0" encoding="utf-8"?>
<!-- Generator: Adobe Illustrator 16.0.0, SVG Export Plug-In . SVG Version: 6.00 Build 0)  -->
<!DOCTYPE svg PUBLIC "-//W3C//DTD SVG 1.1//EN" "http://www.w3.org/Graphics/SVG/1.1/DTD/svg11.dtd">
<svg version="1.1" id="Layer_1" xmlns="http://www.w3.org/2000/svg" xmlns:xlink="http://www.w3.org/1999/xlink" x="0px" y="0px"
	 width="1291.837px" height="832.055px" viewBox="0 0 1291.837 832.055" enable-background="new 0 0 1291.837 832.055"
	 xml:space="preserve">
<path fill="none" stroke="#FFFFFF" stroke-width="7" stroke-miterlimit="10" d="M620.725,52.866
	c73.76-1.779,123.934,47.203,139.1,101.545c2.371,8.506,3.518,17.354,5.23,26.046c0,0,0,14.877,0,22.313
	c-0.354,2.037-0.874,4.065-1.031,6.121c-1.858,24.086-9.131,46.669-23.498,65.827c-21.104,28.141-47.452,49.82-83.213,57.151
	c-8.363,1.717-16.773,3.19-25.162,4.773c-5.82,0-11.641,0-17.461,0c-1.88-0.38-3.74-0.896-5.639-1.121
	c-33.004-3.927-62.082-16.443-85.64-40.221 M532.007,297.708c0.501-0.45,20.898,20.878,21.399,20.429
	c-3.016-5.456-28.823-30.418-31.647-35.971c-12.698-24.965-17.833-53.001-12.65-81.535c3.682-20.276,9.195-39.628,22.553-55.983
	c19-23.262,43.332-37.693,72.258-45.216c17.443-4.537,16.564-1.561,17.425-21.808c0.491-11.516,1.523-12.176,12.086-7.213
	c24.111,11.331,42.355,29.01,57.036,51.068c6.895,10.361,7.212,19.928,0.29,29.563c-7.423,10.339-15.068,20.619-23.622,30.013
	c-10.161,11.159-21.911,20.558-36.426,25.895c-4.04,1.487-6.183,0.477-6.878-3.68c-0.882-5.257-1.638-10.537-2.566-15.787
	c-1.195-6.763-2.41-7.411-8.626-4.879c-0.599,0.243-1.193,0.504-1.77,0.793c-23.648,11.826-41.212,29.752-53.299,53.169
	c-3.898,7.553-4.246,15.202-0.279,22.787c13.103,25.052,33.301,42.5,58.731,54.156c4.82,2.212,7.047,0.953,7.857-4.278
	c0.912-5.892,1.385-11.884,1.58-17.846c0.132-4.024,1.142-5.871,5.67-6.334c26.421-2.697,49.095-13.59,69.038-31.146
	c55.965-49.266,55.545-151.931-29.239-191.878c-24.271-11.437-49.843-10.893-75.137-6.09c-37.252,7.071-65.945,28.245-87.158,59.159
	c-20.569,29.98-25.785,63.771-20.792,99.2c4.187,29.725,16.026,56.104,37.289,77.78
	C527.195,294.181,529.704,295.842,532.007,297.708z M763.361,194.04c0,77.871-63.127,140.995-140.997,140.995
	c-77.87,0-140.994-63.124-140.994-140.995c0-77.869,63.126-140.995,140.994-140.995C700.234,53.045,763.361,116.171,763.361,194.04z
	"/>
<path fill="#FFFFFF" stroke="#FFFFFF" stroke-width="7" stroke-miterlimit="10" d="M530.066,297.708
	c-2.302-1.866-4.812-3.527-6.873-5.628c-21.263-21.677-33.102-48.059-37.29-77.78c-4.992-35.433,0.222-69.221,20.793-99.202
	c21.212-30.915,49.904-52.088,87.157-59.159c25.294-4.801,50.866-5.345,75.136,6.089c84.784,39.947,85.205,142.612,29.239,191.878
	c-19.942,17.556-42.618,28.45-69.038,31.147c-4.527,0.463-5.538,2.31-5.668,6.332c-0.195,5.962-0.667,11.954-1.582,17.849
	c-0.809,5.229-3.036,6.487-7.856,4.278c-25.431-11.659-45.628-29.107-58.73-54.156c-3.968-7.586-3.62-15.235,0.279-22.79
	c12.086-23.417,29.65-41.343,53.297-53.169c0.578-0.287,1.172-0.548,1.771-0.79c6.217-2.535,7.433-1.884,8.627,4.878
	c0.926,5.25,1.684,10.528,2.564,15.787c0.697,4.154,2.839,5.165,6.878,3.68c14.516-5.339,26.267-14.737,36.427-25.895
	c8.553-9.393,16.199-19.676,23.623-30.013c6.92-9.638,6.604-19.204-0.291-29.565c-14.683-22.059-32.926-39.736-57.035-51.066
	c-10.563-4.965-11.596-4.303-12.086,7.212c-0.861,20.247,0.018,17.271-17.427,21.808c-28.927,7.522-53.259,21.955-72.258,45.216
	c-13.36,16.353-18.873,35.706-22.556,55.982c-5.182,28.534,2.685,54.382,15.383,79.347c2.824,5.555,14.102,21.784,17.117,27.24
	C539.167,307.665,530.568,297.258,530.066,297.708z"/>
<text transform="matrix(1 0 0 1 57.4805 547.469)" enable-background="new    "><tspan x="0" y="0" fill="#FFFFFF" font-family="'IowanOldStyle-Bold'" font-size="189" letter-spacing="4">ECOWASTE </tspan><tspan x="62.662" y="189" fill="#FFFFFF" font-family="'IowanOldStyle-Bold'" font-size="189" letter-spacing="4">DIGESTER</tspan></text>
</svg>
